<?xml version="1.0" encoding="UTF-8"?>
<svg width="260px" height="61px" viewBox="0 0 260 61" version="1.1" xmlns="http://www.w3.org/2000/svg" xmlns:xlink="http://www.w3.org/1999/xlink">
    <!-- Generator: Sketch 53 (72520) - https://sketchapp.com -->
    <title>logo_autism</title>
    <desc>Created with Sketch.</desc>
    <defs>
        <path d="M0.798924561,2.29359897 L5.68834287,2.29359897 L5.68834287,3.11534995 L1.6845895,3.11534995 L1.6845895,5.15146626 L5.38703418,5.15146626 L5.38703418,5.9275644 L1.6845895,5.9275644 L1.6845895,8.20107544 L5.75682212,8.20107544 L5.75682212,9 L0.798924561,9 L0.798924561,2.29359897 Z M7.32727954,7.46606484 C7.35162784,7.73998321 7.4201064,7.94998413 7.53271729,8.09607393 C7.73967783,8.36086168 8.09880985,8.49325356 8.61012412,8.49325356 C8.91447786,8.49325356 9.18230513,8.42705762 9.41361396,8.29466375 C9.6449228,8.16226987 9.76057549,7.95759505 9.76057549,7.68063315 C9.76057549,7.47062908 9.66774899,7.31084576 9.48209321,7.20127842 C9.36339526,7.1343206 9.1290464,7.05671156 8.7790396,6.96844897 L8.1262041,6.80409878 C7.70923948,6.70061851 7.40184682,6.58496582 7.20401689,6.45713726 C6.85096656,6.23495903 6.67444404,5.92756637 6.67444404,5.53495005 C6.67444404,5.07233237 6.84107521,4.69798289 7.17434255,4.41189038 C7.50760989,4.12579787 7.95576405,3.98275376 8.51881846,3.98275376 C9.2553545,3.98275376 9.7864438,4.19884167 10.1121023,4.63102397 C10.3160193,4.90494234 10.4149328,5.20016103 10.4088457,5.51668892 L9.63274756,5.51668892 C9.61752987,5.33103314 9.5520948,5.16211935 9.43644038,5.00994248 C9.24774106,4.79385133 8.92056571,4.68580737 8.45490449,4.68580737 C8.14446368,4.68580737 7.90935395,4.74515546 7.74956824,4.86385342 C7.58978253,4.98255137 7.50989087,5.1392912 7.50989087,5.33407759 C7.50989087,5.5471252 7.61489133,5.71756074 7.82489541,5.84538931 C7.9466369,5.92147774 8.12620291,5.98843456 8.36359883,6.04626177 L8.90686753,6.17865498 C9.49731378,6.32170124 9.8929677,6.46018011 10.0938412,6.59409575 C10.4134126,6.80409983 10.5731959,7.13431868 10.5731959,7.58476221 C10.5731959,8.01998805 10.4080865,8.39585927 10.0778627,8.71238716 C9.74763887,9.02891504 9.24470186,9.18717661 8.56903657,9.18717661 C7.84163114,9.18717661 7.32652017,9.02206719 7.02368821,8.69184338 C6.72085624,8.36161958 6.55879031,7.95303082 6.53748555,7.46606484 L7.32727954,7.46606484 Z M11.6779944,2.74556201 L12.508876,2.74556201 L12.508876,4.11058169 L13.2895394,4.11058169 L13.2895394,4.78167832 L12.508876,4.78167832 L12.508876,7.97281128 C12.508876,8.14324937 12.5667023,8.25738031 12.6823567,8.31520752 C12.746271,8.34868643 12.8527932,8.36542563 13.0019266,8.36542563 C13.0414925,8.36542563 13.0841014,8.36466476 13.1297545,8.36314299 C13.1754076,8.36162122 13.2286687,8.35781686 13.2895394,8.35172979 L13.2895394,9 C13.1951897,9.02739184 13.0970371,9.04717453 12.9950786,9.05934868 C12.8931201,9.07152283 12.7827936,9.07760981 12.6640956,9.07760981 C12.2806099,9.07760981 12.0203914,8.97945721 11.8834322,8.78314905 C11.746473,8.58684089 11.6779944,8.33194846 11.6779944,8.01846411 L11.6779944,4.78167832 L11.0160284,4.78167832 L11.0160284,4.11058169 L11.6779944,4.11058169 L11.6779944,2.74556201 Z M14.7412995,7.69889429 C14.7412995,7.9362902 14.828039,8.12346494 15.0015206,8.26042412 C15.1750022,8.3973833 15.3804379,8.46586187 15.6178338,8.46586187 C15.9069699,8.46586187 16.1869711,8.39890505 16.4578459,8.2649894 C16.9143766,8.04281118 17.1426384,7.67911392 17.1426384,7.17388672 L17.1426384,6.51192065 C17.0422017,6.57583494 16.9128533,6.62909604 16.7545894,6.67170557 C16.5963254,6.71431509 16.4411073,6.74475001 16.2889305,6.76301123 L15.7913146,6.8269252 C15.4930479,6.86649118 15.2693513,6.92888276 15.120218,7.01410181 C14.8676044,7.15714806 14.7412995,7.38540994 14.7412995,7.69889429 Z M16.7317629,6.0371312 C16.9204623,6.0127829 17.0467672,5.93365212 17.1106814,5.79973647 C17.1472039,5.72669158 17.1654648,5.62169111 17.1654648,5.48473193 C17.1654648,5.2047265 17.0657905,5.00157343 16.8664388,4.87526663 C16.6670871,4.74895983 16.3817598,4.68580737 16.0104482,4.68580737 C15.5813094,4.68580737 15.2769603,4.80146006 15.0973916,5.0327689 C14.9969548,5.16059747 14.9315197,5.3508157 14.9010844,5.6034293 L14.1341168,5.6034293 C14.1493345,5.0008089 14.3448788,4.58156792 14.7207557,4.34569377 C15.0966326,4.10981963 15.5326127,3.99188433 16.0287093,3.99188433 C16.6039379,3.99188433 17.0711139,4.10145003 17.4302513,4.32058472 C17.7863451,4.53971941 17.9643894,4.88059048 17.9643894,5.34320815 L17.9643894,8.15998789 C17.9643894,8.24520694 17.9818895,8.3136855 18.0168902,8.36542563 C18.0518908,8.41716577 18.1256955,8.44303545 18.2383064,8.44303545 C18.2748288,8.44303545 18.315916,8.44075283 18.361569,8.43618752 C18.4072221,8.43162222 18.455918,8.42477436 18.5076581,8.41564375 L18.5076581,9.02282642 C18.3798295,9.05934886 18.2824378,9.08217505 18.21548,9.09130566 C18.1485222,9.10043628 18.0572174,9.10500151 17.941563,9.10500151 C17.658514,9.10500151 17.4530783,9.00456629 17.3252498,8.80369282 C17.2582919,8.69716901 17.2111178,8.54651618 17.183726,8.35172979 C17.0163314,8.57086447 16.7758956,8.76108271 16.4624112,8.92239019 C16.1489269,9.08369767 15.8034906,9.1643502 15.4260919,9.1643502 C14.9726049,9.1643502 14.6020598,9.0266322 14.3144455,8.75119207 C14.0268312,8.47575193 13.8830262,8.1310765 13.8830262,7.71715542 C13.8830262,7.26366835 14.0245486,6.91214506 14.3075976,6.662575 C14.5906465,6.41300494 14.9619525,6.25930861 15.4215267,6.2014814 L16.7317629,6.0371312 Z M19.247234,2.27077256 L20.0461585,2.27077256 L20.0461585,4.70406851 C20.2257272,4.46971613 20.4402934,4.29091099 20.6898635,4.16764773 C20.9394335,4.04438447 21.2103043,3.98275376 21.5024839,3.98275376 C22.1111914,3.98275376 22.6049979,4.19199381 22.9839183,4.6104802 C23.3628387,5.02896659 23.552296,5.64603453 23.552296,6.46170254 C23.552296,7.23476103 23.3651213,7.87693778 22.9907662,8.38825205 C22.6164111,8.89956633 22.0974958,9.15521963 21.4340046,9.15521963 C21.0626931,9.15521963 20.7492134,9.06543662 20.4935563,8.88586792 C20.3413794,8.77934411 20.1785526,8.60890858 20.005071,8.3745562 L20.005071,9 L19.247234,9 L19.247234,2.27077256 Z M21.3837865,8.4293396 C21.828143,8.4293396 22.1606444,8.25281708 22.3813009,7.89976675 C22.6019574,7.54671642 22.7122839,7.08106218 22.7122839,6.50279009 C22.7122839,5.98843228 22.6019574,5.56234344 22.3813009,5.22451079 C22.1606444,4.88667814 21.8357517,4.71776436 21.4066129,4.71776436 C21.0322578,4.71776436 20.7043216,4.85624323 20.4227944,5.13320513 C20.1412672,5.41016703 20.0005057,5.86669078 20.0005057,6.50279009 C20.0005057,6.96236423 20.0583321,7.33519196 20.1739865,7.62128447 C20.3900776,8.15999058 20.7933403,8.4293396 21.3837865,8.4293396 Z M24.5338319,2.29359897 L25.3555829,2.29359897 L25.3555829,9 L24.5338319,9 L24.5338319,2.29359897 Z M26.5882094,4.13340811 L27.4236562,4.13340811 L27.4236562,9 L26.5882094,9 L26.5882094,4.13340811 Z M26.5882094,2.29359897 L27.4236562,2.29359897 L27.4236562,3.22491675 L26.5882094,3.22491675 L26.5882094,2.29359897 Z M29.1538985,7.46606484 C29.1782468,7.73998321 29.2467254,7.94998413 29.3593363,8.09607393 C29.5662968,8.36086168 29.9254288,8.49325356 30.4367431,8.49325356 C30.7410969,8.49325356 31.0089241,8.42705762 31.240233,8.29466375 C31.4715418,8.16226987 31.5871945,7.95759505 31.5871945,7.68063315 C31.5871945,7.47062908 31.494368,7.31084576 31.3087122,7.20127842 C31.1900143,7.1343206 30.9556654,7.05671156 30.6056586,6.96844897 L29.9528231,6.80409878 C29.5358585,6.70061851 29.2284658,6.58496582 29.0306359,6.45713726 C28.6775856,6.23495903 28.501063,5.92756637 28.501063,5.53495005 C28.501063,5.07233237 28.6676942,4.69798289 29.0009615,4.41189038 C29.3342289,4.12579787 29.782383,3.98275376 30.3454375,3.98275376 C31.0819735,3.98275376 31.6130628,4.19884167 31.9387213,4.63102397 C32.1426383,4.90494234 32.2415518,5.20016103 32.2354647,5.51668892 L31.4593666,5.51668892 C31.4441489,5.33103314 31.3787138,5.16211935 31.2630594,5.00994248 C31.0743601,4.79385133 30.7471847,4.68580737 30.2815235,4.68580737 C29.9710827,4.68580737 29.7359729,4.74515546 29.5761872,4.86385342 C29.4164015,4.98255137 29.3365099,5.1392912 29.3365099,5.33407759 C29.3365099,5.5471252 29.4415103,5.71756074 29.6515144,5.84538931 C29.7732559,5.92147774 29.9528219,5.98843456 30.1902178,6.04626177 L30.7334865,6.17865498 C31.3239328,6.32170124 31.7195867,6.46018011 31.9204602,6.59409575 C32.2400316,6.80409983 32.3998149,7.13431868 32.3998149,7.58476221 C32.3998149,8.01998805 32.2347055,8.39585927 31.9044817,8.71238716 C31.5742579,9.02891504 31.0713209,9.18717661 30.3956556,9.18717661 C29.6682501,9.18717661 29.1531392,9.02206719 28.8503072,8.69184338 C28.5474752,8.36161958 28.3854093,7.95303082 28.3641045,7.46606484 L29.1538985,7.46606484 Z M33.3402632,2.27077256 L34.1620142,2.27077256 L34.1620142,4.77254775 C34.3568006,4.52602123 34.5318014,4.3525422 34.6870218,4.25210547 C34.9518095,4.07862384 35.2820284,3.99188433 35.6776882,3.99188433 C36.3868324,3.99188433 36.8677041,4.2399289 37.1203177,4.73602549 C37.2572769,5.00690031 37.3257555,5.38277154 37.3257555,5.86365044 L37.3257555,9 L36.4811781,9 L36.4811781,5.91843384 C36.4811781,5.55929643 36.4355257,5.2960344 36.3442196,5.12863984 C36.1950862,4.86080856 35.915085,4.72689492 35.5042075,4.72689492 C35.1633313,4.72689492 34.8544169,4.84406935 34.577455,5.07842173 C34.3004931,5.3127741 34.1620142,5.75560215 34.1620142,6.40691914 L34.1620142,9 L33.3402632,9 L33.3402632,2.27077256 Z M40.5762371,4.00101489 C40.9232004,4.00101489 41.2595062,4.0824283 41.5851647,4.24525754 C41.9108232,4.40808679 42.1588678,4.61884859 42.3293059,4.87754927 C42.4936569,5.12407579 42.6032226,5.41168576 42.6580063,5.74038779 C42.7067028,5.96560956 42.7310508,6.32474158 42.7310508,6.81779463 L39.1473035,6.81779463 C39.1625212,7.31389122 39.2796956,7.71182776 39.4988303,8.01161619 C39.717965,8.31140462 40.0573143,8.46129658 40.5168884,8.46129658 C40.9460272,8.46129658 41.28842,8.31977422 41.5440771,8.03672524 C41.6901669,7.87237423 41.7936457,7.682156 41.8545164,7.46606484 L42.6625715,7.46606484 C42.6412668,7.64563355 42.5705056,7.84574313 42.4502859,8.06639958 C42.3300661,8.28705604 42.1953916,8.46738293 42.0462583,8.60738564 C41.7966882,8.85086863 41.4877738,9.01521718 41.1195058,9.10043623 C40.9216759,9.14913283 40.6979792,9.17348076 40.4484092,9.17348076 C39.8397017,9.17348076 39.3238299,8.95206674 38.9007782,8.50923206 C38.4777265,8.06639737 38.2662038,7.44628594 38.2662038,6.64887915 C38.2662038,5.86364651 38.4792482,5.226035 38.9053435,4.73602549 C39.3314387,4.24601597 39.8883977,4.00101489 40.5762371,4.00101489 Z M41.8864734,6.16495913 C41.8529945,5.80886526 41.7753854,5.52429879 41.6536439,5.31125117 C41.4284222,4.91559132 41.052551,4.71776436 40.526019,4.71776436 C40.1486204,4.71776436 39.8320972,4.85396061 39.5764401,5.1263572 C39.320783,5.3987538 39.1853476,5.74495098 39.1701299,6.16495913 L41.8864734,6.16495913 Z M44.2604207,6.61235688 C44.2604207,7.13584531 44.3715081,7.57410811 44.5936863,7.92715845 C44.8158646,8.28020878 45.1719531,8.4567313 45.6619626,8.4567313 C46.0424048,8.4567313 46.3551235,8.29314362 46.6001283,7.96596335 C46.8451331,7.63878309 46.9676336,7.16932449 46.9676336,6.55757349 C46.9676336,5.9397354 46.8413287,5.48245078 46.5887151,5.18570588 C46.3361015,4.88896099 46.0241436,4.74059077 45.652832,4.74059077 C45.238911,4.74059077 44.903366,4.89885234 44.6461871,5.21538022 C44.3890082,5.53190811 44.2604207,5.99756234 44.2604207,6.61235688 Z M45.4976124,4.02384131 C45.8719675,4.02384131 46.1854471,4.10297209 46.4380607,4.26123604 C46.5841505,4.35254216 46.7500208,4.51232547 46.9356766,4.74059077 L46.9356766,2.27077256 L47.7254706,2.27077256 L47.7254706,9 L46.9858947,9 L46.9858947,8.3197728 C46.7941519,8.621083 46.5674117,8.83869266 46.3056675,8.9726083 C46.0439233,9.10652394 45.7441394,9.17348076 45.4063067,9.17348076 C44.8615136,9.17348076 44.3897723,8.94445801 43.9910689,8.48640564 C43.5923656,8.02835327 43.3930168,7.41889406 43.3930168,6.65800972 C43.3930168,5.94582198 43.5748655,5.32875403 43.9385682,4.80678738 C44.3022709,4.28482072 44.8219471,4.02384131 45.4976124,4.02384131 Z M51.8296602,4.37080283 L51.8296602,3.74079375 C52.42315,3.68296654 52.8370649,3.58633568 53.0714172,3.45089827 C53.3057696,3.31546085 53.4807704,2.99513335 53.5964248,2.48990615 L54.244695,2.48990615 L54.244695,9 L53.3681606,9 L53.3681606,4.37080283 L51.8296602,4.37080283 Z M57.3764793,7.42041201 C57.4008276,7.87389908 57.5758284,8.18737872 57.9014869,8.36086035 C58.0688814,8.45216647 58.2575779,8.49781885 58.467582,8.49781885 C58.8601983,8.49781885 59.1949824,8.33423117 59.4719443,8.0070509 C59.7489062,7.67987064 59.9452114,7.01562857 60.0608658,6.01430479 C59.8782536,6.30344083 59.6522743,6.5065939 59.3829213,6.62377009 C59.1135682,6.74094628 58.8236756,6.7995335 58.5132348,6.7995335 C57.8832226,6.7995335 57.3848508,6.60322828 57.0181046,6.21061196 C56.6513583,5.81799564 56.4679879,5.31277602 56.4679879,4.69493794 C56.4679879,4.10144816 56.6490757,3.57948933 57.0112566,3.1290458 C57.3734376,2.67860227 57.9075704,2.45338389 58.613671,2.45338389 C59.5662982,2.45338389 60.2236924,2.88251622 60.5858734,3.74079375 C60.7867469,4.21254204 60.8871821,4.80297943 60.8871821,5.51212363 C60.8871821,6.31257396 60.7669642,7.02170752 60.5265247,7.63954561 C60.1278213,8.66826123 59.4521662,9.18261133 58.499539,9.18261133 C57.8603961,9.18261133 57.3749592,9.01521928 57.0432136,8.68043018 C56.7114681,8.34564107 56.5455978,7.92563921 56.5455978,7.42041201 L57.3764793,7.42041201 Z M58.6228016,6.07821875 C58.9484601,6.07821875 59.2459614,5.97093567 59.5153145,5.75636628 C59.7846675,5.5417969 59.919342,5.16668655 59.919342,4.63102397 C59.919342,4.15014507 59.7983632,3.79177393 59.556402,3.55589978 C59.3144408,3.32002564 59.0062873,3.20209033 58.6319322,3.20209033 C58.2301852,3.20209033 57.9113795,3.33676484 57.6755053,3.6061179 C57.4396312,3.87547095 57.3216959,4.23536384 57.3216959,4.68580737 C57.3216959,5.1119026 57.4251746,5.45049105 57.6321352,5.70158289 C57.8390957,5.95267472 58.1693145,6.07821875 58.6228016,6.07821875 Z M64.0691845,2.43512275 C64.7996334,2.43512275 65.3086574,2.62458011 65.5962717,3.00350051 C65.883886,3.38242091 66.027691,3.77274872 66.027691,4.17449565 L65.2150706,4.17449565 C65.166374,3.91579498 65.0887649,3.71340278 64.9822411,3.56731299 C64.7844112,3.29339463 64.4846273,3.1564375 64.0828803,3.1564375 C63.6233062,3.1564375 63.2580872,3.36872105 62.9872124,3.79329451 C62.7163375,4.21786797 62.5656847,4.82580543 62.5352493,5.61712515 C62.7239486,5.34016325 62.961341,5.13320581 63.2474335,4.99624663 C63.5091777,4.87450514 63.8013529,4.8136353 64.1239679,4.8136353 C64.6718046,4.8136353 65.1496328,4.98863608 65.5574668,5.33864287 C65.9653008,5.68864967 66.1692147,6.21060849 66.1692147,6.90453501 C66.1692147,7.49802479 65.975953,8.02378798 65.5894238,8.48184036 C65.2028945,8.93989273 64.6520225,9.16891548 63.9367913,9.16891548 C63.3250403,9.16891548 62.7969944,8.93684924 62.352638,8.47270979 C61.9082815,8.00857034 61.6861066,7.22715385 61.6861066,6.12843687 C61.6861066,5.31581239 61.7850201,4.62646152 61.98285,4.06036357 C62.3632922,2.97686428 63.0587301,2.43512275 64.0691845,2.43512275 Z M64.0098358,8.43847017 C64.4420181,8.43847017 64.7653891,8.29314344 64.9799585,8.00248562 C65.1945279,7.7118278 65.3018109,7.36867411 65.3018109,6.97301426 C65.3018109,6.63822515 65.2059409,6.31941939 65.0141981,6.01658743 C64.8224552,5.71375546 64.4739754,5.56234175 63.9687482,5.56234175 C63.6156979,5.56234175 63.3060226,5.67951618 63.0397131,5.91386855 C62.7734036,6.14822093 62.6402508,6.50126597 62.6402508,6.97301426 C62.6402508,7.38693534 62.7612296,7.73465426 63.0031908,8.01618147 C63.2451521,8.29770867 63.580697,8.43847017 64.0098358,8.43847017 Z M68.9631681,9.17804604 C68.1901096,9.17804604 67.6293462,8.9657625 67.2808612,8.54118904 C66.9323762,8.11661558 66.7581363,7.59998286 66.7581363,6.99127539 L67.6164095,6.99127539 C67.652932,7.41432708 67.7320628,7.72171974 67.8538042,7.9134626 C68.0668519,8.25738232 68.4518536,8.4293396 69.0088209,8.4293396 C69.4410032,8.4293396 69.7879613,8.31368692 70.0497055,8.08237808 C70.3114497,7.85106924 70.4423198,7.55280705 70.4423198,7.18758257 C70.4423198,6.73713904 70.3046018,6.42213765 70.0291617,6.24256895 C69.7537216,6.06300024 69.3710025,5.97321724 68.880993,5.97321724 C68.8262093,5.97321724 68.7706656,5.97397811 68.7143601,5.97549988 C68.6580547,5.97702165 68.6009892,5.97930427 68.543162,5.9823478 L68.543162,5.25646777 C68.6283811,5.26559839 68.6999031,5.27168537 68.7577303,5.27472891 C68.8155575,5.27777244 68.8779491,5.27929419 68.9449069,5.27929419 C69.2523042,5.27929419 69.504914,5.23059832 69.7027439,5.13320513 C70.0497072,4.96276704 70.2231862,4.65841787 70.2231862,4.22014849 C70.2231862,3.89448999 70.1075335,3.64340192 69.8762247,3.46687676 C69.6449159,3.29035159 69.3755669,3.20209033 69.0681696,3.20209033 C68.5203329,3.20209033 68.1414181,3.38469983 67.9314141,3.74992432 C67.8157596,3.95079778 67.7503246,4.236886 67.7351069,4.60819756 L66.9224865,4.60819756 C66.9224865,4.12123158 67.0198782,3.70731671 67.2146646,3.36644053 C67.5494537,2.75773306 68.1383694,2.45338389 68.9814292,2.45338389 C69.6479639,2.45338389 70.1638357,2.60175411 70.5290602,2.898499 C70.8942847,3.19524389 71.0768942,3.62513709 71.0768942,4.1881915 C71.0768942,4.58993843 70.9688502,4.91559205 70.7527591,5.16516211 C70.6188434,5.32038251 70.4453644,5.44212218 70.2323168,5.53038477 C70.5762365,5.62473442 70.8448247,5.80658305 71.0380893,6.07593611 C71.2313539,6.34528916 71.3279848,6.67474714 71.3279848,7.06431992 C71.3279848,7.68824508 71.1225491,8.19650819 70.7116715,8.58912451 C70.300794,8.98174083 69.7179653,9.17804604 68.9631681,9.17804604 Z" id="path-1"></path>
        <path d="M3.83027261,17.8320346 C4.25636784,17.8320346 4.59343454,17.7468168 4.84148284,17.5763787 C5.08953113,17.4059406 5.21355342,17.098548 5.21355342,16.6541915 C5.21355342,16.1763561 5.04007439,15.8507025 4.69311113,15.6772209 C4.50745535,15.5859148 4.25941078,15.5402624 3.94896997,15.5402624 L1.73024233,15.5402624 L1.73024233,17.8320346 L3.83027261,17.8320346 Z M0.821750977,14.759599 L3.92614355,14.759599 C4.43745783,14.759599 4.85898143,14.8341645 5.190727,14.9832979 C5.82073923,15.2693904 6.13574063,15.7974362 6.13574063,16.5674511 C6.13574063,16.9691981 6.05280548,17.2978952 5.88693269,17.5535523 C5.7210599,17.8092094 5.48899366,18.0146451 5.190727,18.1698655 C5.45247121,18.2763893 5.6495373,18.41639 5.78193118,18.5898716 C5.91432505,18.7633532 5.98812973,19.0448762 6.00334741,19.434449 L6.03530439,20.3338098 C6.04443501,20.5894669 6.06573945,20.7796851 6.09921836,20.9044702 C6.15400203,21.1175178 6.25139377,21.2544749 6.39139648,21.3153457 L6.39139648,21.466 L5.27746738,21.466 C5.24703201,21.4081728 5.22268408,21.3336072 5.20442285,21.2423011 C5.18616163,21.150995 5.17094417,20.9744725 5.15877002,20.7127283 L5.10398662,19.5942339 C5.08268186,19.1559645 4.91985505,18.8622676 4.61550132,18.7131342 C4.44201969,18.6309587 4.16962718,18.5898716 3.79831562,18.5898716 L1.73024233,18.5898716 L1.73024233,21.466 L0.821750977,21.466 L0.821750977,14.759599 Z M9.39078755,16.4670149 C9.73775081,16.4670149 10.0740566,16.5484283 10.3997151,16.7112575 C10.7253736,16.8740868 10.9734182,17.0848486 11.1438563,17.3435493 C11.3082073,17.5900758 11.417773,17.8776858 11.4725567,18.2063878 C11.5212533,18.4316096 11.5456012,18.7907416 11.5456012,19.2837946 L7.96185391,19.2837946 C7.97707159,19.7798912 8.09424602,20.1778278 8.31338071,20.4776162 C8.5325154,20.7774046 8.87186473,20.9272966 9.33143887,20.9272966 C9.76057763,20.9272966 10.1029705,20.7857742 10.3586276,20.5027252 C10.5047174,20.3383742 10.6081961,20.148156 10.6690668,19.9320648 L11.477122,19.9320648 C11.4558172,20.1116335 11.385056,20.3117431 11.2648363,20.5323996 C11.1446166,20.753056 11.0099421,20.9333829 10.8608087,21.0733856 C10.6112387,21.3168686 10.3023243,21.4812172 9.93405625,21.5664362 C9.73622632,21.6151328 9.51252968,21.6394808 9.26295962,21.6394808 C8.65425215,21.6394808 8.13838031,21.4180667 7.71532861,20.9752321 C7.29227692,20.5323974 7.08075425,19.9122859 7.08075425,19.1148792 C7.08075425,18.3296465 7.29379867,17.692035 7.7198939,17.2020255 C8.14598913,16.712016 8.70294811,16.4670149 9.39078755,16.4670149 Z M10.7010238,18.6309591 C10.6675449,18.2748653 10.5899359,17.9902988 10.4681944,17.7772512 C10.2429726,17.3815913 9.8671014,17.1837644 9.34056943,17.1837644 C8.9631708,17.1837644 8.64664766,17.3199606 8.39099053,17.5923572 C8.13533339,17.8647538 7.99989801,18.210951 7.98468032,18.6309591 L10.7010238,18.6309591 Z M14.2802059,16.4898413 C14.6636916,16.4898413 14.9984757,16.5841896 15.2845682,16.7728889 C15.4397886,16.8794127 15.5980501,17.0346308 15.7593576,17.2385478 L15.7593576,16.6222345 L16.5171946,16.6222345 L16.5171946,21.0688204 C16.5171946,21.689702 16.4258899,22.1797041 16.2432776,22.5388416 C15.9024015,23.2023327 15.258703,23.5340733 14.3121628,23.5340733 C13.7856309,23.5340733 13.3428028,23.416138 12.9836654,23.1802638 C12.624528,22.9443897 12.4236576,22.5753663 12.381048,22.0731827 L13.2164949,22.0731827 C13.2560609,22.2923174 13.3351916,22.4612311 13.4538896,22.5799291 C13.6395454,22.7625413 13.9317206,22.8538461 14.330424,22.8538461 C14.9604362,22.8538461 15.3728293,22.6316712 15.5676157,22.1873147 C15.6832701,21.9255705 15.7365312,21.4583946 15.7274006,20.7857728 C15.5630496,21.0353429 15.3652227,21.2209959 15.1339138,21.3427374 C14.902605,21.4644788 14.5967341,21.5253487 14.2162919,21.5253487 C13.6867164,21.5253487 13.2233448,21.3374131 12.8261632,20.9615362 C12.4289815,20.5856593 12.2303937,19.9640262 12.2303937,19.096618 C12.2303937,18.2779065 12.4305033,17.6387732 12.8307284,17.1791991 C13.2309536,16.7196249 13.7141079,16.4898413 14.2802059,16.4898413 Z M15.7593576,19.0007471 C15.7593576,18.3950831 15.6345745,17.9461681 15.3850044,17.6539885 C15.1354343,17.3618089 14.8173894,17.2157213 14.4308602,17.2157213 C13.8525881,17.2157213 13.4569342,17.4865921 13.2438866,18.0283417 C13.1312757,18.3174778 13.0749711,18.6963925 13.0749711,19.1650973 C13.0749711,19.7159775 13.1868194,20.1352185 13.4105194,20.4228328 C13.6342194,20.7104471 13.9347642,20.8542521 14.3121628,20.8542521 C14.9026091,20.8542521 15.3180457,20.5879465 15.5584852,20.0553275 C15.6924008,19.7540173 15.7593576,19.402494 15.7593576,19.0007471 Z M17.9506936,20.4707683 L18.9048377,20.4707683 L18.9048377,21.466 L17.9506936,21.466 L17.9506936,20.4707683 Z M23.0592455,14.759599 L24.132087,14.759599 L27.5195271,20.192286 L27.5195271,14.759599 L28.3823657,14.759599 L28.3823657,21.466 L27.3643075,21.466 L23.9266493,16.0378783 L23.9266493,21.466 L23.0592455,21.466 L23.0592455,14.759599 Z M31.6419779,20.9364271 C32.1867711,20.9364271 32.5603597,20.7302306 32.7627549,20.3178313 C32.9651501,19.905432 33.0663462,19.4466256 33.0663462,18.9413984 C33.0663462,18.4848678 32.9933024,18.1135618 32.8472126,17.8274693 C32.6159038,17.3770258 32.2172064,17.1518074 31.6511084,17.1518074 C31.1489248,17.1518074 30.7837058,17.3435474 30.5554405,17.7270331 C30.3271752,18.1105188 30.2130442,18.5731295 30.2130442,19.1148792 C30.2130442,19.635324 30.3271752,20.0690216 30.5554405,20.4159849 C30.7837058,20.7629481 31.1458813,20.9364271 31.6419779,20.9364271 Z M31.6739349,16.4350579 C32.3039471,16.4350579 32.8365581,16.6450588 33.271784,17.065067 C33.7070098,17.4850751 33.9246195,18.102904 33.9246195,18.918572 C33.9246195,19.7068481 33.7328795,20.3581554 33.3493938,20.8725132 C32.9659081,21.386871 32.3709055,21.644046 31.5643681,21.644046 C30.8917463,21.644046 30.3576135,21.416545 29.9619537,20.9615362 C29.5662938,20.5065274 29.3684668,19.8955464 29.3684668,19.128575 C29.3684668,18.3068199 29.576946,17.6524692 29.9939106,17.1655032 C30.4108753,16.6785372 30.9708777,16.4350579 31.6739349,16.4350579 Z M35.0978973,20.4707683 L36.0520415,20.4707683 L36.0520415,21.466 L35.0978973,21.466 L35.0978973,20.4707683 Z M39.7864431,21.466 C39.8168785,20.9029456 39.933292,20.4129434 40.1356873,19.9959788 C40.3380825,19.5790142 40.7329756,19.2000995 41.3203783,18.8592233 L42.1969126,18.3524769 C42.589529,18.1242116 42.864965,17.9294281 43.0232289,17.7681206 C43.272799,17.515507 43.3975821,17.2263753 43.3975821,16.9007168 C43.3975821,16.5202746 43.2834512,16.2182081 43.0551859,15.9945081 C42.8269206,15.7708081 42.5225714,15.6589598 42.1421292,15.6589598 C41.5790748,15.6589598 41.1895079,15.8720042 40.9734167,16.2980994 C40.8577623,16.5263647 40.793849,16.8428879 40.7816749,17.2476783 L39.946228,17.2476783 C39.9553586,16.6785368 40.0603591,16.2144044 40.2612326,15.8552669 C40.6173264,15.2222112 41.2458075,14.905688 42.1466945,14.905688 C42.8954047,14.905688 43.4424724,15.1080802 43.7879138,15.5128707 C44.1333553,15.9176612 44.3060735,16.3680979 44.3060735,16.8641945 C44.3060735,17.387683 44.1219422,17.8350762 43.7536742,18.2063878 C43.5406266,18.4224789 43.1586684,18.6842192 42.6077881,18.9916165 L41.9823443,19.338578 C41.6840777,19.502929 41.4497288,19.6596689 41.2792907,19.8088022 C40.974937,20.0735899 40.783197,20.3672869 40.704065,20.6899019 L44.2741165,20.6899019 L44.2741165,21.466 L39.7864431,21.466 Z M47.2232895,14.9285145 C48.0693928,14.9285145 48.6811347,15.2769943 49.0585333,15.9739643 C49.3507129,16.5126704 49.4968005,17.2507172 49.4968005,18.1881267 C49.4968005,19.0768396 49.3644086,19.8118428 49.0996208,20.3931584 C48.7161351,21.2270877 48.0891759,21.644046 47.2187242,21.644046 C46.4334915,21.644046 45.8491411,21.303175 45.4656554,20.6214226 C45.146084,20.0522811 44.9863007,19.2883647 44.9863007,18.3296504 C44.9863007,17.5870273 45.0821707,16.9494158 45.2739135,16.4167968 C45.6330509,15.4246036 46.2828364,14.9285145 47.2232895,14.9285145 Z M47.2141589,20.8953396 C47.6402541,20.8953396 47.9796034,20.7066431 48.232217,20.3292445 C48.4848306,19.9518459 48.6111355,19.2487993 48.6111355,18.2200836 C48.6111355,17.4774605 48.5198308,16.8664796 48.3372186,16.3871224 C48.1546063,15.9077653 47.8000395,15.6680903 47.2735076,15.6680903 C46.7895851,15.6680903 46.4357792,15.8955913 46.2120792,16.3506002 C45.9883792,16.805609 45.8765309,17.4759381 45.8765309,18.3616074 C45.8765309,19.0281421 45.948053,19.5637966 46.0910992,19.9685871 C46.3102339,20.5864252 46.6845834,20.8953396 47.2141589,20.8953396 Z M52.423147,14.9285145 C53.2692504,14.9285145 53.8809922,15.2769943 54.2583909,15.9739643 C54.5505705,16.5126704 54.6966581,17.2507172 54.6966581,18.1881267 C54.6966581,19.0768396 54.5642662,19.8118428 54.2994784,20.3931584 C53.9159927,21.2270877 53.2890334,21.644046 52.4185817,21.644046 C51.6333491,21.644046 51.0489987,21.303175 50.665513,20.6214226 C50.3459416,20.0522811 50.1861583,19.2883647 50.1861583,18.3296504 C50.1861583,17.5870273 50.2820282,16.9494158 50.4737711,16.4167968 C50.8329085,15.4246036 51.482694,14.9285145 52.423147,14.9285145 Z M52.4140165,20.8953396 C52.8401117,20.8953396 53.179461,20.7066431 53.4320746,20.3292445 C53.6846882,19.9518459 53.8109931,19.2487993 53.8109931,18.2200836 C53.8109931,17.4774605 53.7196884,16.8664796 53.5370761,16.3871224 C53.3544639,15.9077653 52.9998971,15.6680903 52.4733651,15.6680903 C51.9894427,15.6680903 51.6356368,15.8955913 51.4119368,16.3506002 C51.1882368,16.805609 51.0763885,17.4759381 51.0763885,18.3616074 C51.0763885,19.0281421 51.1479105,19.5637966 51.2909568,19.9685871 C51.5100915,20.5864252 51.884441,20.8953396 52.4140165,20.8953396 Z M57.6230046,14.9285145 C58.469108,14.9285145 59.0808498,15.2769943 59.4582484,15.9739643 C59.750428,16.5126704 59.8965156,17.2507172 59.8965156,18.1881267 C59.8965156,19.0768396 59.7641237,19.8118428 59.499336,20.3931584 C59.1158503,21.2270877 58.488891,21.644046 57.6184393,21.644046 C56.8332067,21.644046 56.2488563,21.303175 55.8653706,20.6214226 C55.5457991,20.0522811 55.3860158,19.2883647 55.3860158,18.3296504 C55.3860158,17.5870273 55.4818858,16.9494158 55.6736287,16.4167968 C56.0327661,15.4246036 56.6825515,14.9285145 57.6230046,14.9285145 Z M57.613874,20.8953396 C58.0399693,20.8953396 58.3793186,20.7066431 58.6319322,20.3292445 C58.8845458,19.9518459 59.0108507,19.2487993 59.0108507,18.2200836 C59.0108507,17.4774605 58.9195459,16.8664796 58.7369337,16.3871224 C58.5543215,15.9077653 58.1997547,15.6680903 57.6732227,15.6680903 C57.1893003,15.6680903 56.8354944,15.8955913 56.6117944,16.3506002 C56.3880944,16.805609 56.276246,17.4759381 56.276246,18.3616074 C56.276246,19.0281421 56.3477681,19.5637966 56.4908144,19.9685871 C56.709949,20.5864252 57.0842985,20.8953396 57.613874,20.8953396 Z M62.836558,17.6676844 C63.198739,17.6676844 63.4817837,17.5664883 63.6857007,17.364093 C63.8896177,17.1616978 63.9915747,16.9205011 63.9915747,16.6404957 C63.9915747,16.3970127 63.8941829,16.173316 63.6993965,15.969399 C63.5046101,15.765482 63.2078697,15.663525 62.8091663,15.663525 C62.4135065,15.663525 62.1274182,15.765482 61.9508931,15.969399 C61.7743679,16.173316 61.6861066,16.4122301 61.6861066,16.6861485 C61.6861066,16.9935458 61.8002376,17.2339816 62.0285029,17.4074632 C62.2567682,17.5809449 62.5261172,17.6676844 62.836558,17.6676844 Z M62.8867761,20.9044702 C63.2672183,20.9044702 63.5829806,20.8017523 63.8340724,20.5963135 C64.0851642,20.3908748 64.2107083,20.084243 64.2107083,19.676409 C64.2107083,19.2533573 64.0813599,18.9322689 63.8226592,18.7131342 C63.5639585,18.4939995 63.2322179,18.3844338 62.8274274,18.3844338 C62.4348111,18.3844338 62.1144836,18.4962822 61.8664353,18.7199822 C61.618387,18.9436821 61.4943647,19.2533574 61.4943647,19.6490173 C61.4943647,19.9898935 61.6077348,20.2843513 61.8344783,20.5323996 C62.0612219,20.7804479 62.4119843,20.9044702 62.8867761,20.9044702 Z M61.7180636,17.9826889 C61.4897983,17.8852957 61.3117541,17.7711648 61.1839255,17.6402927 C60.943486,17.3968097 60.8232681,17.0802866 60.8232681,16.6907138 C60.8232681,16.2037478 60.9997906,15.7852677 61.352841,15.4352609 C61.7058913,15.0852541 62.2065457,14.9102533 62.8548191,14.9102533 C63.4817878,14.9102533 63.9733117,15.0753627 64.3294056,15.4055865 C64.6854995,15.7358104 64.8635437,16.1215729 64.8635437,16.5628858 C64.8635437,16.9707198 64.760065,17.3009387 64.5531045,17.5535523 C64.4374501,17.6965986 64.2578841,17.8365992 64.0144011,17.9735583 C64.2852759,18.0983434 64.4983203,18.2413875 64.6535407,18.402695 C64.9426768,18.7070487 65.0872426,19.1027026 65.0872426,19.5896686 C65.0872426,20.1648972 64.8939809,20.6526167 64.5074517,21.0528419 C64.1209224,21.453067 63.5746157,21.6531766 62.868515,21.6531766 C62.2324157,21.6531766 61.6944785,21.4804585 61.2546874,21.135017 C60.8148962,20.7895755 60.595004,20.2881602 60.595004,19.6307562 C60.595004,19.2442269 60.6893522,18.9102037 60.8780515,18.6286765 C61.0667508,18.3471493 61.3467521,18.1318222 61.7180636,17.9826889 Z M66.6485695,19.7996716 C66.7033532,20.2683764 66.9209628,20.5925082 67.301405,20.772077 C67.4961914,20.8633831 67.7214098,20.9090354 67.9770669,20.9090354 C68.4640329,20.9090354 68.8246866,20.7538174 69.059039,20.4433766 C69.2933914,20.1329358 69.4105658,19.7890212 69.4105658,19.4116226 C69.4105658,18.955092 69.2713261,18.6020469 68.9928424,18.3524769 C68.7143587,18.1029068 68.3803355,17.9781236 67.9907627,17.9781236 C67.7077138,17.9781236 67.4649953,18.0329065 67.2626001,18.1424738 C67.0602048,18.2520412 66.8874867,18.4042158 66.7444404,18.5990021 L66.0322563,18.5579146 L66.5298721,15.0380812 L69.9264428,15.0380812 L69.9264428,15.8324405 L67.1461854,15.8324405 L66.8677031,17.6494232 C67.0198799,17.5337688 67.1644458,17.4470293 67.301405,17.3892021 C67.544888,17.2887654 67.826411,17.2385478 68.1459824,17.2385478 C68.7455592,17.2385478 69.2538223,17.4318095 69.670787,17.8183387 C70.0877516,18.204868 70.2962308,18.6948701 70.2962308,19.2883599 C70.2962308,19.906198 70.1052517,20.450983 69.7232877,20.9227313 C69.3413238,21.3944796 68.7318646,21.6303502 67.8948918,21.6303502 C67.3622728,21.6303502 66.8912924,21.4804582 66.4819366,21.1806698 C66.0725809,20.8808814 65.8435581,20.4205533 65.7948615,19.7996716 L66.6485695,19.7996716 Z M70.9855885,21.466 C71.0160239,20.9029456 71.1324375,20.4129434 71.3348327,19.9959788 C71.5372279,19.5790142 71.932121,19.2000995 72.5195237,18.8592233 L73.3960581,18.3524769 C73.7886744,18.1242116 74.0641104,17.9294281 74.2223743,17.7681206 C74.4719444,17.515507 74.5967275,17.2263753 74.5967275,16.9007168 C74.5967275,16.5202746 74.4825966,16.2182081 74.2543313,15.9945081 C74.026066,15.7708081 73.7217168,15.6589598 73.3412747,15.6589598 C72.7782202,15.6589598 72.3886533,15.8720042 72.1725622,16.2980994 C72.0569077,16.5263647 71.9929944,16.8428879 71.9808203,17.2476783 L71.1453734,17.2476783 C71.154504,16.6785368 71.2595045,16.2144044 71.460378,15.8552669 C71.8164718,15.2222112 72.4449529,14.905688 73.3458399,14.905688 C74.0945501,14.905688 74.6416178,15.1080802 74.9870593,15.5128707 C75.3325007,15.9176612 75.5052189,16.3680979 75.5052189,16.8641945 C75.5052189,17.387683 75.3210876,17.8350762 74.9528196,18.2063878 C74.739772,18.4224789 74.3578138,18.6842192 73.8069335,18.9916165 L73.1814897,19.338578 C72.8832231,19.502929 72.6488742,19.6596689 72.4784361,19.8088022 C72.1740824,20.0735899 71.9823424,20.3672869 71.9032104,20.6899019 L75.4732619,20.6899019 L75.4732619,21.466 L70.9855885,21.466 Z M77.135025,19.886412 C77.1593733,20.3398991 77.3343741,20.6533787 77.6600326,20.8268604 C77.8274271,20.9181665 78.0161236,20.9638188 78.2261277,20.9638188 C78.618744,20.9638188 78.9535281,20.8002312 79.23049,20.4730509 C79.5074519,20.1458706 79.7037571,19.4816286 79.8194115,18.4803048 C79.6367993,18.7694408 79.41082,18.9725939 79.141467,19.0897701 C78.8721139,19.2069463 78.5822213,19.2655335 78.2717805,19.2655335 C77.6417683,19.2655335 77.1433965,19.0692283 76.7766503,18.676612 C76.409904,18.2839956 76.2265336,17.778776 76.2265336,17.1609379 C76.2265336,16.5674482 76.4076214,16.0454893 76.7698023,15.5950458 C77.1319833,15.1446023 77.6661161,14.9193839 78.3722167,14.9193839 C79.3248439,14.9193839 79.9822381,15.3485162 80.3444191,16.2067937 C80.5452926,16.678542 80.6457278,17.2689794 80.6457278,17.9781236 C80.6457278,18.778574 80.5255099,19.4877075 80.2850704,20.1055456 C79.886367,21.1342612 79.2107119,21.6486113 78.2580847,21.6486113 C77.6189418,21.6486113 77.1335049,21.4812193 76.8017593,21.1464302 C76.4700138,20.8116411 76.3041435,20.3916392 76.3041435,19.886412 L77.135025,19.886412 Z M78.3813473,18.5442187 C78.7070058,18.5442187 79.0045071,18.4369357 79.2738602,18.2223663 C79.5432132,18.0077969 79.6778877,17.6326865 79.6778877,17.097024 C79.6778877,16.6161451 79.5569089,16.2577739 79.3149477,16.0218998 C79.0729865,15.7860256 78.764833,15.6680903 78.3904779,15.6680903 C77.988731,15.6680903 77.6699252,15.8027648 77.434051,16.0721179 C77.1981769,16.341471 77.0802416,16.7013638 77.0802416,17.1518074 C77.0802416,17.5779026 77.1837203,17.9164911 77.3906809,18.1675829 C77.5976414,18.4186747 77.9278602,18.5442187 78.3813473,18.5442187 Z" id="path-2"></path>
        <path d="M3.53809448,27.0439876 C4.3872414,27.0439876 5.04615736,27.2676843 5.51486211,27.7150843 C5.98356686,28.1624843 6.2437854,28.6707474 6.29552554,29.2398889 L5.4098606,29.2398889 C5.30942386,28.8077066 5.10931428,28.4653137 4.80952585,28.2127001 C4.50973743,27.9600865 4.0889747,27.8337816 3.54722505,27.8337816 C2.88677744,27.8337816 2.35340552,28.0658479 1.94709329,28.5299873 C1.54078105,28.9941268 1.33762798,29.705543 1.33762798,30.6642572 C1.33762798,31.4494899 1.52099835,32.0863405 1.8877446,32.5748282 C2.25449086,33.063316 2.80155849,33.3075562 3.52896392,33.3075562 C4.19854213,33.3075562 4.70832699,33.0503812 5.05833379,32.5360233 C5.24398957,32.2651485 5.38246844,31.90906 5.47377456,31.4677471 L6.3594395,31.4677471 C6.28030753,32.1738477 6.01856724,32.7658069 5.57421079,33.2436422 C5.04159175,33.8188708 4.32332771,34.1064808 3.41939712,34.1064808 C2.64025156,34.1064808 1.98590084,33.8706102 1.45632534,33.3988619 C0.759355288,32.7749367 0.410875488,31.8116716 0.410875488,30.5090376 C0.410875488,29.519888 0.672615774,28.7087974 1.1961042,28.0757417 C1.76220215,27.3879022 2.54285777,27.0439876 3.53809448,27.0439876 Z M7.48706445,27.226599 L8.40468638,27.226599 L8.40468638,29.9977259 L11.8925627,29.9977259 L11.8925627,27.226599 L12.8101847,27.226599 L12.8101847,33.933 L11.8925627,33.933 L11.8925627,30.7966504 L8.40468638,30.7966504 L8.40468638,33.933 L7.48706445,33.933 L7.48706445,27.226599 Z M13.6958496,27.226599 L14.7549953,27.226599 L16.6815448,30.4496889 L18.6080943,27.226599 L19.6718053,27.226599 L17.1380731,31.2303523 L17.1380731,33.933 L16.2295818,33.933 L16.2295818,31.2303523 L13.6958496,27.226599 Z M20.8953012,32.2666716 C20.9500849,32.7353764 21.1676945,33.0595082 21.5481367,33.239077 C21.7429231,33.3303831 21.9681415,33.3760354 22.2237986,33.3760354 C22.7107646,33.3760354 23.0714184,33.2208174 23.3057708,32.9103766 C23.5401231,32.5999358 23.6572976,32.2560212 23.6572976,31.8786226 C23.6572976,31.422092 23.5180578,31.0690469 23.2395741,30.8194769 C22.9610905,30.5699068 22.6270673,30.4451236 22.2374945,30.4451236 C21.9544455,30.4451236 21.711727,30.4999065 21.5093318,30.6094738 C21.3069366,30.7190412 21.1342184,30.8712158 20.9911722,31.0660021 L20.278988,31.0249146 L20.7766039,27.5050812 L24.1731746,27.5050812 L24.1731746,28.2994405 L21.3929171,28.2994405 L21.1144348,30.1164232 C21.2666117,30.0007688 21.4111775,29.9140293 21.5481367,29.8562021 C21.7916197,29.7557654 22.0731427,29.7055478 22.3927141,29.7055478 C22.992291,29.7055478 23.5005541,29.8988095 23.9175187,30.2853387 C24.3344833,30.671868 24.5429625,31.1618701 24.5429625,31.7553599 C24.5429625,32.373198 24.3519834,32.917983 23.9700195,33.3897313 C23.5880555,33.8614796 22.9785963,34.0973502 22.1416235,34.0973502 C21.6090045,34.0973502 21.1380242,33.9474582 20.7286684,33.6476698 C20.3193126,33.3478814 20.0902899,32.8875533 20.0415933,32.2666716 L20.8953012,32.2666716 Z M26.0951588,32.2666716 C26.1499425,32.7353764 26.3675521,33.0595082 26.7479943,33.239077 C26.9427807,33.3303831 27.1679991,33.3760354 27.4236562,33.3760354 C27.9106222,33.3760354 28.2712759,33.2208174 28.5056283,32.9103766 C28.7399807,32.5999358 28.8571551,32.2560212 28.8571551,31.8786226 C28.8571551,31.422092 28.7179154,31.0690469 28.4394317,30.8194769 C28.160948,30.5699068 27.8269248,30.4451236 27.4373521,30.4451236 C27.1543031,30.4451236 26.9115846,30.4999065 26.7091894,30.6094738 C26.5067941,30.7190412 26.334076,30.8712158 26.1910297,31.0660021 L25.4788456,31.0249146 L25.9764614,27.5050812 L29.3730321,27.5050812 L29.3730321,28.2994405 L26.5927747,28.2994405 L26.3142924,30.1164232 C26.4664693,30.0007688 26.6110351,29.9140293 26.7479943,29.8562021 C26.9914773,29.7557654 27.2730003,29.7055478 27.5925717,29.7055478 C28.1921485,29.7055478 28.7004117,29.8988095 29.1173763,30.2853387 C29.5343409,30.671868 29.7428201,31.1618701 29.7428201,31.7553599 C29.7428201,32.373198 29.551841,32.917983 29.169877,33.3897313 C28.7879131,33.8614796 28.1784539,34.0973502 27.3414811,34.0973502 C26.8088621,34.0973502 26.3378817,33.9474582 25.928526,33.6476698 C25.5191702,33.3478814 25.2901474,32.8875533 25.2414508,32.2666716 L26.0951588,32.2666716 Z M33.2306964,31.6184014 L33.2306964,28.6555326 L31.1352314,31.6184014 L33.2306964,31.6184014 Z M33.2443923,33.933 L33.2443923,32.3351509 L30.3773944,32.3351509 L30.3773944,31.531661 L33.3722202,27.3772533 L34.0661433,27.3772533 L34.0661433,31.6184014 L35.029418,31.6184014 L35.029418,32.3351509 L34.0661433,32.3351509 L34.0661433,33.933 L33.2443923,33.933 Z M40.2292756,27.5050812 L40.2292756,28.2218307 C40.0192715,28.4257477 39.7400311,28.7803145 39.3915461,29.2855417 C39.0430611,29.7907689 38.7349076,30.3355539 38.4670763,30.9199131 C38.2022885,31.4890546 38.0014181,32.0079699 37.8644589,32.4766747 C37.7761963,32.7779849 37.6620654,33.2634218 37.5220626,33.933 L36.6135713,33.933 C36.8205318,32.6851497 37.2770556,31.4434051 37.9831563,30.2077289 C38.4001209,29.483367 38.8383837,28.8579295 39.2979578,28.3313975 L35.6822535,28.3313975 L35.6822535,27.5050812 L40.2292756,27.5050812 Z" id="path-3"></path>
        <path d="M57.7603359,48.3014817 L58.7007842,52.1545807 L59.6549284,48.3014817 L60.5771156,48.3014817 L61.5358251,52.1317543 L62.5356221,48.3014817 L63.3573731,48.3014817 L61.93757,53.1909 L61.0838621,53.1909 L60.0886303,49.4062802 L59.1253556,53.1909 L58.2716476,53.1909 L56.8609751,48.3014817 L57.7603359,48.3014817 Z M64.5123897,48.3014817 L65.4528381,52.1545807 L66.4069823,48.3014817 L67.3291695,48.3014817 L68.287879,52.1317543 L69.287676,48.3014817 L70.109427,48.3014817 L68.6896239,53.1909 L67.8359159,53.1909 L66.8406842,49.4062802 L65.8774094,53.1909 L65.0237015,53.1909 L63.613029,48.3014817 L64.5123897,48.3014817 Z M71.2644436,48.3014817 L72.2048919,52.1545807 L73.1590361,48.3014817 L74.0812233,48.3014817 L75.0399328,52.1317543 L76.0397298,48.3014817 L76.8614808,48.3014817 L75.4416777,53.1909 L74.5879698,53.1909 L73.592738,49.4062802 L72.6294633,53.1909 L71.7757553,53.1909 L70.3650828,48.3014817 L71.2644436,48.3014817 Z M77.3225744,52.1956683 L78.2767186,52.1956683 L78.2767186,53.1909 L77.3225744,53.1909 L77.3225744,52.1956683 Z M80.3539225,51.8897943 C80.3539225,52.1271902 80.440662,52.3143649 80.6141436,52.4513241 C80.7876252,52.5882833 80.9930609,52.6567619 81.2304568,52.6567619 C81.5195929,52.6567619 81.7995941,52.589805 82.0704689,52.4558894 C82.5269995,52.2337112 82.7552614,51.8700139 82.7552614,51.3647867 L82.7552614,50.7028207 C82.6548247,50.7667349 82.5254763,50.819996 82.3672124,50.8626056 C82.2089484,50.9052151 82.0537303,50.93565 81.9015535,50.9539112 L81.4039376,51.0178252 C81.1056709,51.0573912 80.8819743,51.1197828 80.732841,51.2050018 C80.4802274,51.3480481 80.3539225,51.5763099 80.3539225,51.8897943 Z M82.3443859,50.2280312 C82.5330853,50.2036829 82.6593902,50.1245521 82.7233044,49.9906365 C82.7598269,49.9175916 82.7780878,49.8125911 82.7780878,49.6756319 C82.7780878,49.3956265 82.6784135,49.1924734 82.4790618,49.0661666 C82.2797101,48.9398598 81.9943827,48.8767074 81.6230712,48.8767074 C81.1939324,48.8767074 80.8895833,48.9923601 80.7100146,49.2236689 C80.6095778,49.3514975 80.5441427,49.5417157 80.5137074,49.7943293 L79.7467398,49.7943293 C79.7619575,49.1917089 79.9575018,48.7724679 80.3333787,48.5365938 C80.7092555,48.3007196 81.1452357,48.1827843 81.6413323,48.1827843 C82.2165609,48.1827843 82.6837369,48.29235 83.0428743,48.5114847 C83.3989681,48.7306194 83.5770124,49.0714905 83.5770124,49.5341082 L83.5770124,52.3508879 C83.5770124,52.4361069 83.5945125,52.5045855 83.6295132,52.5563256 C83.6645138,52.6080658 83.7383185,52.6339354 83.8509294,52.6339354 C83.8874518,52.6339354 83.928539,52.6316528 83.974192,52.6270875 C84.0198451,52.6225222 84.068541,52.6156744 84.1202811,52.6065438 L84.1202811,53.2137264 C83.9924525,53.2502489 83.8950608,53.2730751 83.828103,53.2822057 C83.7611452,53.2913363 83.6698404,53.2959015 83.554186,53.2959015 C83.271137,53.2959015 83.0657013,53.1954663 82.9378728,52.9945928 C82.8709149,52.888069 82.8237408,52.7374162 82.796349,52.5426298 C82.6289544,52.7617645 82.3885186,52.9519827 82.0750342,53.1132902 C81.7615499,53.2745977 81.4161136,53.3552502 81.0387149,53.3552502 C80.5852279,53.3552502 80.2146828,53.2175322 79.9270685,52.9420921 C79.6394542,52.6666519 79.4956492,52.3219765 79.4956492,51.9080554 C79.4956492,51.4545684 79.6371716,51.1030451 79.9202206,50.853475 C80.2032695,50.6039049 80.5745755,50.4502086 81.0341497,50.3923814 L82.3443859,50.2280312 Z M85.7455219,48.3014817 L85.7455219,51.547398 C85.7455219,51.7969681 85.7850873,52.0008821 85.8642193,52.159146 C86.0103091,52.4513256 86.2827016,52.5974132 86.681405,52.5974132 C87.25359,52.5974132 87.6431569,52.3417599 87.8501175,51.8304456 C87.9627284,51.5565272 88.019033,51.180656 88.019033,50.7028207 L88.019033,48.3014817 L88.8407839,48.3014817 L88.8407839,53.1909 L88.0646858,53.1909 L88.0738164,52.4695853 C87.9672926,52.655241 87.8349007,52.8119809 87.6766367,52.9398094 C87.3631524,53.1954666 86.9827159,53.3232932 86.5353159,53.3232932 C85.8383459,53.3232932 85.3635612,53.0904661 85.1109476,52.6248049 C84.9739884,52.3752348 84.9055098,52.0419725 84.9055098,51.6250079 L84.9055098,48.3014817 L85.7455219,48.3014817 Z M90.2879787,46.936462 L91.1188603,46.936462 L91.1188603,48.3014817 L91.8995237,48.3014817 L91.8995237,48.9725783 L91.1188603,48.9725783 L91.1188603,52.1637113 C91.1188603,52.3341494 91.1766866,52.4482803 91.292341,52.5061075 C91.3562553,52.5395864 91.4627775,52.5563256 91.6119108,52.5563256 C91.6514768,52.5563256 91.6940857,52.5555648 91.7397388,52.554043 C91.7853918,52.5525212 91.8386529,52.5487169 91.8995237,52.5426298 L91.8995237,53.1909 C91.805174,53.2182918 91.7070214,53.2380745 91.6050629,53.2502487 C91.5031044,53.2624228 91.3927778,53.2685098 91.2740799,53.2685098 C90.8905942,53.2685098 90.6303756,53.1703572 90.4934165,52.974049 C90.3564573,52.7777409 90.2879787,52.5228485 90.2879787,52.2093641 L90.2879787,48.9725783 L89.6260126,48.9725783 L89.6260126,48.3014817 L90.2879787,48.3014817 L90.2879787,46.936462 Z M92.7212747,48.3243081 L93.5567215,48.3243081 L93.5567215,53.1909 L92.7212747,53.1909 L92.7212747,48.3243081 Z M92.7212747,46.484499 L93.5567215,46.484499 L93.5567215,47.4158167 L92.7212747,47.4158167 L92.7212747,46.484499 Z M95.2869638,51.6569648 C95.3113121,51.9308832 95.3797907,52.1408841 95.4924016,52.2869739 C95.6993621,52.5517617 96.0584941,52.6841536 96.5698084,52.6841536 C96.8741621,52.6841536 97.1419894,52.6179576 97.3732982,52.4855637 C97.6046071,52.3531699 97.7202598,52.1484951 97.7202598,51.8715332 C97.7202598,51.6615291 97.6274333,51.5017458 97.4417775,51.3921784 C97.3230795,51.3252206 97.0887307,51.2476116 96.7387239,51.159349 L96.0858884,50.9949988 C95.6689238,50.8915185 95.3615311,50.7758658 95.1637012,50.6480373 C94.8106508,50.425859 94.6341283,50.1184664 94.6341283,49.72585 C94.6341283,49.2632324 94.8007595,48.8888829 95.1340268,48.6027904 C95.4672942,48.3166979 95.9154483,48.1736538 96.4785027,48.1736538 C97.2150388,48.1736538 97.7461281,48.3897417 98.0717866,48.821924 C98.2757036,49.0958423 98.3746171,49.391061 98.36853,49.7075889 L97.5924318,49.7075889 C97.5772141,49.5219331 97.5117791,49.3530193 97.3961247,49.2008425 C97.2074253,48.9847513 96.88025,48.8767074 96.4145888,48.8767074 C96.104148,48.8767074 95.8690382,48.9360555 95.7092525,49.0547534 C95.5494668,49.1734514 95.4695751,49.3301912 95.4695751,49.5249776 C95.4695751,49.7380252 95.5745756,49.9084607 95.7845797,50.0362893 C95.9063212,50.1123777 96.0858872,50.1793346 96.3232831,50.2371618 L96.8665518,50.369555 C97.4569981,50.5126012 97.852652,50.6510801 98.0535254,50.7849958 C98.3730969,50.9949998 98.5328802,51.3252187 98.5328802,51.7756622 C98.5328802,52.210888 98.3677708,52.5867593 98.0375469,52.9032872 C97.7073231,53.219815 97.2043861,53.3780766 96.5287208,53.3780766 C95.8013154,53.3780766 95.2862045,53.2129672 94.9833725,52.8827434 C94.6805405,52.5525196 94.5184746,52.1439308 94.4971698,51.6569648 L95.2869638,51.6569648 Z M99.4733285,48.3014817 L100.285949,48.3014817 L100.285949,48.9954047 C100.480735,48.7549653 100.657258,48.5799645 100.815522,48.4703972 C101.086397,48.2847414 101.393789,48.1919149 101.737709,48.1919149 C102.127282,48.1919149 102.440761,48.2877849 102.678157,48.4795277 C102.812073,48.5890951 102.933813,48.7504001 103.04338,48.9634478 C103.225992,48.7017035 103.440558,48.5076809 103.687085,48.3813741 C103.933611,48.2550673 104.210569,48.1919149 104.517966,48.1919149 C105.175371,48.1919149 105.622764,48.4293072 105.86016,48.9040991 C105.987988,49.1597562 106.051902,49.5036708 106.051902,49.9358531 L106.051902,53.1909 L105.198194,53.1909 L105.198194,49.7943293 C105.198194,49.4686708 105.11678,49.2449742 104.953951,49.1232327 C104.791122,49.0014912 104.592534,48.9406213 104.358182,48.9406213 C104.035567,48.9406213 103.757848,49.0486653 103.525017,49.2647564 C103.292187,49.4808476 103.175773,49.8415014 103.175773,50.3467286 L103.175773,53.1909 L102.340326,53.1909 L102.340326,49.999767 C102.340326,49.6680215 102.300761,49.4260639 102.221629,49.273887 C102.096844,49.0456217 101.864017,48.9314908 101.523141,48.9314908 C101.2127,48.9314908 100.930416,49.0517087 100.676281,49.2921481 C100.422145,49.5325876 100.295079,49.9678069 100.295079,50.5978191 L100.295079,53.1909 L99.4733285,53.1909 L99.4733285,48.3014817 Z M107.458009,52.1956683 L108.412153,52.1956683 L108.412153,53.1909 L107.458009,53.1909 L107.458009,52.1956683 Z M109.859348,48.3243081 L110.694795,48.3243081 L110.694795,53.1909 L109.859348,53.1909 L109.859348,48.3243081 Z M109.859348,46.484499 L110.694795,46.484499 L110.694795,47.4158167 L109.859348,47.4158167 L109.859348,46.484499 Z M113.972668,48.1919149 C114.319631,48.1919149 114.655937,48.2733283 114.981596,48.4361575 C115.307254,48.5989868 115.555299,48.8097486 115.725737,49.0684493 C115.890088,49.3149758 115.999653,49.6025858 116.054437,49.9312878 C116.103134,50.1565096 116.127482,50.5156416 116.127482,51.0086946 L112.543734,51.0086946 C112.558952,51.5047912 112.676126,51.9027278 112.895261,52.2025162 C113.114396,52.5023046 113.453745,52.6521966 113.913319,52.6521966 C114.342458,52.6521966 114.684851,52.5106742 114.940508,52.2276252 C115.086598,52.0632742 115.190077,51.873056 115.250947,51.6569648 L116.059002,51.6569648 C116.037698,51.8365335 115.966936,52.0366431 115.846717,52.2572996 C115.726497,52.477956 115.591822,52.6582829 115.442689,52.7982856 C115.193119,53.0417686 114.884205,53.2061172 114.515937,53.2913362 C114.318107,53.3400328 114.09441,53.3643808 113.84484,53.3643808 C113.236133,53.3643808 112.720261,53.1429667 112.297209,52.7001321 C111.874157,52.2572974 111.662635,51.6371859 111.662635,50.8397792 C111.662635,50.0545465 111.875679,49.416935 112.301774,48.9269255 C112.72787,48.436916 113.284829,48.1919149 113.972668,48.1919149 Z M115.282904,50.3558591 C115.249425,49.9997653 115.171816,49.7151988 115.050075,49.5021512 C114.824853,49.1064913 114.448982,48.9086644 113.92245,48.9086644 C113.545051,48.9086644 113.228528,49.0448606 112.972871,49.3172572 C112.717214,49.5896538 112.581778,49.935851 112.566561,50.3558591 L115.282904,50.3558591 Z" id="path-4"></path>
    </defs>
    <g id="logo_autism" stroke="none" stroke-width="1" fill="none" fill-rule="evenodd">
        <g id="irish_society_for_autism_logo-2" transform="translate(0.000000, 3.000000)">
            <g id="irish_society_for_autism_logo">
                <g id="Group" transform="translate(55.000000, 3.000000)" fill="#193A5B" fill-rule="nonzero">
                    <rect id="Rectangle" x="2.108" y="1.209" width="2.616" height="13.686"></rect>
                    <path d="M13.159,7.236 C13.015,7.194 12.812,7.175 12.649,7.175 C11.77,7.175 10.769,8.175 9.973,9.053 L9.973,14.896 L7.48,14.896 L7.48,5.294 L9.972,4.804 L9.972,6.745 C10.462,6.051 11.382,4.804 12.546,4.804 C12.915,4.804 13.321,4.969 13.445,5.091 L13.159,7.236 Z" id="Path"></path>
                    <path d="M15.12,5.315 L17.613,4.803 L17.613,14.894 L15.12,14.894 L15.12,5.315 Z M14.774,1.72 C14.774,0.843 15.467,0.147 16.366,0.147 C17.284,0.147 18.02,0.843 18.02,1.72 C18.02,2.578 17.285,3.272 16.366,3.272 C15.468,3.271 14.774,2.578 14.774,1.72 L14.774,1.72 Z" id="Shape"></path>
                    <path d="M23.126,15.181 C21.922,15.181 20.368,14.794 19.491,14.283 L19.981,12.321 C20.759,12.772 22.167,13.181 23.208,13.181 C23.945,13.181 24.476,12.895 24.476,12.341 C24.476,11.649 24.047,11.423 22.372,10.77 C20.798,10.156 19.776,9.606 19.776,7.871 C19.776,5.89 21.39,4.805 23.495,4.805 C24.679,4.805 25.925,5.174 26.62,5.561 L26.129,7.503 C25.598,7.237 24.496,6.929 23.658,6.929 C22.738,6.929 22.31,7.217 22.31,7.748 C22.31,8.279 22.983,8.523 24.147,8.952 C25.966,9.626 26.987,10.525 26.987,12.118 C26.988,14.139 25.17,15.181 23.126,15.181" id="Path"></path>
                    <path d="M28.969,0.555 L31.46,0.065 L31.46,6.233 C32.276,5.315 33.502,4.803 34.688,4.803 C36.791,4.803 37.772,6.274 37.772,8.196 L37.772,14.895 L35.28,14.895 L35.28,8.83 C35.28,7.705 34.729,7.091 33.749,7.091 C32.87,7.091 32.074,7.623 31.461,8.257 L31.461,14.895 L28.97,14.895 L28.97,0.555 L28.969,0.555 Z" id="Path"></path>
                    <path d="M48.17,15.181 C46.903,15.181 45.372,14.794 44.247,14.139 L44.574,11.913 C45.556,12.567 47.067,13.015 48.129,13.015 C49.416,13.015 50.232,12.28 50.232,11.342 C50.232,8.767 44.533,8.972 44.533,4.886 C44.533,2.333 46.433,0.922 48.803,0.922 C50.232,0.922 51.478,1.313 52.357,1.801 L51.969,4.028 C51.132,3.497 50.089,3.15 49.007,3.15 C47.904,3.15 47.047,3.64 47.047,4.56 C47.047,6.745 52.847,6.706 52.847,10.994 C52.846,13.466 50.948,15.181 48.17,15.181" id="Path"></path>
                    <path d="M61.223,10.056 C61.223,8.013 60.488,6.847 59.036,6.847 C57.544,6.847 56.85,8.075 56.85,10.056 C56.85,11.812 57.505,13.139 59.036,13.139 C60.61,13.139 61.223,11.729 61.223,10.056 M54.297,10.075 C54.297,6.642 55.932,4.804 59.016,4.804 C62.122,4.804 63.775,6.621 63.775,10.014 C63.775,13.672 61.876,15.181 59.016,15.181 C56.197,15.181 54.297,13.547 54.297,10.075" id="Shape"></path>
                    <path d="M65.205,9.993 C65.205,6.622 67.288,4.804 69.822,4.804 C71.11,4.804 72.213,5.193 72.927,5.684 L72.457,7.522 C71.844,7.237 71.047,6.972 70.23,6.972 C68.534,6.972 67.759,8.258 67.759,9.994 C67.759,11.935 68.493,13.016 70.271,13.016 C71.168,13.016 71.947,12.792 72.723,12.384 L73.111,14.242 C72.458,14.733 71.13,15.181 69.883,15.181 C67.33,15.181 65.205,13.63 65.205,9.993" id="Path"></path>
                    <path d="M74.989,5.315 L77.481,4.803 L77.481,14.894 L74.989,14.894 L74.989,5.315 Z M74.643,1.72 C74.643,0.843 75.337,0.147 76.234,0.147 C77.154,0.147 77.889,0.843 77.889,1.72 C77.889,2.578 77.154,3.272 76.234,3.272 C75.337,3.271 74.643,2.578 74.643,1.72 L74.643,1.72 Z" id="Shape"></path>
                    <path d="M82.139,8.727 L85.612,8.727 C85.632,8.666 85.632,8.339 85.632,8.215 C85.632,7.153 84.939,6.908 84.283,6.908 C83.426,6.908 82.547,7.298 82.139,8.727 L82.139,8.727 Z M82.016,10.382 L82.016,10.401 C82.016,12.078 82.955,13.037 84.692,13.037 C85.734,13.037 86.999,12.629 87.796,12.2 L88.186,14.06 C87.511,14.569 85.795,15.182 84.325,15.182 C81.67,15.182 79.463,13.752 79.463,10.28 C79.463,6.888 81.279,4.806 84.468,4.806 C86.714,4.806 88.205,6.051 88.205,8.481 C88.205,9.135 88.082,10.014 87.962,10.383 L82.016,10.383 L82.016,10.382 Z" id="Shape"></path>
                    <path d="M89.431,5.091 L90.861,5.091 L92.066,2.66 L93.332,2.66 L93.332,5.091 L95.988,5.091 L95.988,6.99 L93.332,6.99 L93.332,12.055 C93.332,12.628 93.579,13.037 94.109,13.037 C94.701,13.037 95.438,12.811 95.846,12.668 L96.131,14.507 C95.601,14.853 94.56,15.18 93.66,15.18 C91.924,15.18 90.862,14.364 90.862,12.259 L90.862,6.989 L89.432,6.989 L89.432,5.091 L89.431,5.091 Z" id="Path"></path>
                    <path d="M102.891,16.018 C102.177,17.96 101.197,19.696 98.868,19.696 C98.276,19.696 97.5,19.594 96.949,19.307 L97.357,17.509 C97.683,17.654 98.297,17.756 98.625,17.756 C99.788,17.756 100.401,16.51 101.096,14.508 L97.214,5.091 L99.87,5.091 L102.26,11.239 L104.365,5.091 L106.917,5.091 L102.891,16.018 Z" id="Path"></path>
                    <path d="M0.822,26.13 L2.232,26.13 L2.232,25.294 C2.232,22.044 4.357,21.105 6.133,21.105 C6.502,21.105 7.031,21.146 7.257,21.227 L6.969,23.208 L6.725,23.208 C4.988,23.208 4.723,24.106 4.723,25.354 L4.723,26.129 L6.746,26.129 L6.746,28.048 L4.723,28.048 L4.723,35.933 L2.232,35.933 L2.232,28.048 L0.822,28.048 L0.822,26.13 Z" id="Path"></path>
                    <path d="M14.508,31.095 C14.508,29.051 13.772,27.887 12.321,27.887 C10.828,27.887 10.135,29.112 10.135,31.095 C10.135,32.85 10.789,34.178 12.321,34.178 C13.893,34.177 14.508,32.768 14.508,31.095 M7.583,31.115 C7.583,27.682 9.216,25.844 12.302,25.844 C15.406,25.844 17.062,27.661 17.062,31.051 C17.062,34.709 15.161,36.221 12.302,36.221 C9.482,36.222 7.583,34.587 7.583,31.115" id="Shape"></path>
                    <path d="M24.72,28.273 C24.577,28.235 24.374,28.214 24.21,28.214 C23.332,28.214 22.33,29.215 21.533,30.093 L21.533,35.934 L19.042,35.934 L19.042,26.334 L21.533,25.844 L21.533,27.783 C22.024,27.089 22.942,25.844 24.109,25.844 C24.475,25.844 24.882,26.008 25.007,26.13 L24.72,28.273 Z" id="Path"></path>
                    <path d="M35.282,30.521 L38.406,30.521 L36.854,26.58 L35.282,30.521 Z M39.244,32.625 L34.465,32.625 L33.157,35.934 L30.48,35.934 L36.058,22.248 L37.65,22.248 L43.205,35.934 L40.551,35.934 L39.244,32.625 Z" id="Shape"></path>
                    <path d="M50.846,34.914 C50.029,35.751 48.843,36.222 47.721,36.222 C45.616,36.222 44.637,34.751 44.637,32.831 L44.637,26.13 L47.128,26.13 L47.128,32.298 C47.128,33.422 47.618,34.034 48.601,34.034 C49.499,34.034 50.254,33.483 50.847,32.891 L50.847,26.13 L53.338,26.13 L53.338,35.934 L50.847,35.934 L50.847,34.914 L50.846,34.914 Z" id="Path"></path>
                    <path d="M55.013,26.13 L56.443,26.13 L57.648,23.699 L58.913,23.699 L58.913,26.13 L61.569,26.13 L61.569,28.03 L58.913,28.03 L58.913,33.095 C58.913,33.665 59.159,34.074 59.689,34.074 C60.283,34.074 61.019,33.85 61.427,33.707 L61.713,35.546 C61.181,35.893 60.14,36.219 59.24,36.219 C57.504,36.219 56.442,35.402 56.442,33.298 L56.442,28.029 L55.012,28.029 L55.012,26.13 L55.013,26.13 Z" id="Path"></path>
                    <path d="M63.694,26.354 L66.186,25.845 L66.186,35.934 L63.694,35.934 L63.694,26.354 Z M63.348,22.76 C63.348,21.881 64.041,21.185 64.939,21.185 C65.858,21.185 66.595,21.88 66.595,22.76 C66.595,23.618 65.858,24.311 64.939,24.311 C64.041,24.312 63.348,23.618 63.348,22.76 L63.348,22.76 Z" id="Shape"></path>
                    <path d="M71.701,36.222 C70.495,36.222 68.942,35.833 68.065,35.323 L68.555,33.362 C69.331,33.813 70.741,34.22 71.784,34.22 C72.519,34.22 73.05,33.932 73.05,33.382 C73.05,32.687 72.62,32.463 70.946,31.809 C69.374,31.196 68.352,30.645 68.352,28.909 C68.352,26.926 69.965,25.845 72.071,25.845 C73.255,25.845 74.5,26.212 75.195,26.6 L74.705,28.541 C74.174,28.275 73.071,27.97 72.233,27.97 C71.314,27.97 70.885,28.255 70.885,28.785 C70.885,29.317 71.559,29.56 72.724,29.992 C74.54,30.665 75.564,31.564 75.564,33.158 C75.562,35.18 73.743,36.222 71.701,36.222" id="Path"></path>
                    <path d="M77.542,26.334 L80.035,25.844 L80.035,27.275 C80.954,26.292 81.915,25.844 83.14,25.844 C84.386,25.844 85.284,26.353 85.734,27.335 C86.611,26.375 87.715,25.844 89.063,25.844 C90.922,25.844 92.004,27.191 92.004,29.235 L92.004,35.934 L89.513,35.934 L89.513,29.786 C89.513,28.847 89.165,28.133 88.123,28.133 C87.266,28.133 86.49,28.703 86.08,29.256 L86.08,35.934 L83.588,35.934 L83.588,29.786 C83.588,28.847 83.242,28.133 82.199,28.133 C81.302,28.133 80.544,28.744 80.034,29.294 L80.034,35.934 L77.541,35.934 L77.541,26.334 L77.542,26.334 Z" id="Path"></path>
                </g>
                <path d="M47.578,29.242 C47.695,29.664 47.29,30.415 46.367,31.491 C46.367,31.531 46.387,31.568 46.424,31.607 C46.637,31.82 46.906,31.953 47.233,32.012 C47.331,32.917 47.002,33.838 46.252,34.78 C46.138,34.933 46.108,35.04 46.166,35.099 C46.263,35.195 46.483,35.203 46.83,35.126 C46.214,36.049 45.646,36.771 45.129,37.291 L45.042,37.375 C45.003,37.415 44.788,37.594 44.394,37.909 C43.998,38.227 43.784,38.406 43.746,38.442 L43.515,38.673 L44.177,39.335 C42.967,39.895 41.523,40.338 39.852,40.663 C39.775,40.857 39.873,41.089 40.142,41.357 C40.199,41.416 40.238,41.434 40.258,41.416 C37.853,42.357 35.901,42.252 34.402,41.098 L34.574,40.927 C35.094,40.405 35.839,40.142 36.809,40.132 C37.781,40.122 38.285,40.098 38.323,40.059 L38.323,40.002 C37.978,39.771 37.439,39.559 36.709,39.367 L37.228,38.846 L37.256,38.819 C37.776,38.299 38.218,38.01 38.583,37.953 C39.043,37.953 39.716,37.953 40.602,37.953 C40.967,37.972 41.409,37.915 41.928,37.78 C41.371,37.684 40.65,37.463 39.766,37.117 L40.052,36.828 L40.199,36.684 C40.679,36.203 41.072,35.924 41.38,35.848 C41.477,35.828 41.885,35.767 42.607,35.659 C43.328,35.555 43.696,35.493 43.715,35.473 C43.735,35.454 43.746,35.426 43.746,35.387 C43.168,35.27 42.696,35.127 42.332,34.954 L43.312,33.972 C43.332,33.954 43.654,33.922 44.277,33.872 C44.903,33.825 45.283,33.732 45.419,33.599 C45.108,33.559 44.637,33.435 44.004,33.223 C44.081,33.147 44.591,32.446 45.533,31.118 C45.148,31.387 44.58,31.802 43.831,32.36 C43.811,32.263 43.754,31.936 43.658,31.379 C43.62,31.38 43.61,31.368 43.629,31.351 C43.609,31.369 43.58,31.397 43.542,31.436 C43.505,31.476 43.452,31.73 43.384,32.199 C43.317,32.671 43.254,32.937 43.198,32.994 L42.043,34.148 L41.869,33.977 C41.638,33.743 41.581,33.359 41.697,32.821 L41.638,32.821 L41.581,32.878 C41.332,33.129 41.168,33.794 41.092,34.869 C40.514,35.33 39.957,35.792 39.419,36.254 C39.361,36.045 39.178,35.419 38.872,34.38 C38.812,34.63 38.736,35.149 38.641,35.937 C38.544,36.571 38.467,36.916 38.41,36.976 C38.121,37.263 37.574,37.678 36.766,38.217 C36.708,37.812 36.64,37.418 36.565,37.033 C36.469,36.514 36.322,36.118 36.132,35.85 C36.073,37.637 35.9,38.675 35.613,38.965 C35.477,39.101 34.853,39.552 33.738,40.32 C33.277,39.668 33.019,38.714 32.959,37.465 C32.901,36.216 33.066,35.148 33.45,34.263 C33.738,33.59 33.891,33.246 33.912,33.224 L34.286,32.849 L34.921,33.772 C35.132,33.521 35.455,33.113 35.887,32.544 C36.32,31.979 36.671,31.559 36.94,31.293 L38.786,29.791 C38.728,29.928 38.708,30.11 38.728,30.338 C38.748,30.572 38.797,30.725 38.874,30.8 C38.931,30.858 39.036,30.868 39.19,30.83 C40.187,29.829 41.334,29.129 42.621,28.724 C42.524,28.898 42.467,29.107 42.45,29.36 L42.65,29.561 C42.959,29.522 43.367,29.373 43.877,29.114 C44.385,28.854 44.813,28.705 45.16,28.666 C45.16,28.86 45.045,29.205 44.813,29.704 C45.333,29.532 45.757,29.417 46.083,29.36 C46.618,29.242 47.118,29.203 47.578,29.242" id="Path" fill="#6EB7E5" fill-rule="nonzero"></path>
                <path d="M35.975,27.299 C35.855,27.543 35.612,27.844 35.249,28.208 C34.068,29.388 33.13,30.054 32.435,30.205 C31.768,30.144 30.847,30.13 29.664,30.161 C27.214,30.374 24.885,30.144 22.675,29.479 C20.465,28.814 18.708,27.831 17.408,26.528 C15.836,24.957 15.061,23.064 15.093,20.854 C15.367,21.187 15.789,21.642 16.364,22.216 C16.454,22.307 16.606,22.458 16.818,22.67 C20.056,25.908 23.127,27.254 26.033,26.709 C26.669,26.438 27.623,26.181 28.893,25.938 C31.074,25.938 33.433,26.394 35.975,27.299" id="Path" fill="#6EB7E5" fill-rule="nonzero"></path>
                <path d="M14.411,8.551 C13.502,10.005 12.989,12.062 12.867,14.726 C12.747,17.389 13.111,19.416 13.957,20.809 C13.292,20.507 12.687,20.082 12.141,19.538 C10.931,18.326 10.37,16.707 10.463,14.679 C10.554,12.654 11.203,11.034 12.415,9.822 C12.687,9.55 13.352,9.127 14.411,8.551" id="Path" fill="#6EB7E5" fill-rule="nonzero"></path>
                <path d="M18.815,4.148 C17.211,10.414 18.195,15.33 21.767,18.902 C23.977,21.111 26.699,22.565 29.938,23.258 C29.815,23.38 29.68,23.517 29.529,23.667 C28.924,24.274 28.112,24.674 27.1,24.87 C26.085,25.068 25.154,24.925 24.307,24.439 C23.853,24.167 23.187,23.624 22.309,22.805 C20.917,23.411 19.163,22.654 17.045,20.536 C14.803,18.296 14.35,15.724 15.682,12.817 C15.167,11.578 15.166,10.097 15.682,8.369 C16.105,6.918 16.756,5.753 17.633,4.874 C17.786,4.724 18.179,4.483 18.815,4.148" id="Path" fill="#6EB7E5" fill-rule="nonzero"></path>
                <path d="M40.333,8.144 C42.997,12.018 42.86,15.422 39.924,18.357 C39.106,19.175 38.412,19.751 37.835,20.083 C37.594,20.144 37.244,20.251 36.792,20.401 C36.641,20.492 36.46,20.642 36.247,20.857 C36.218,20.885 36.156,20.947 36.066,21.037 C36.004,21.159 35.944,21.247 35.883,21.309 C35.46,21.734 34.975,21.976 34.43,22.036 C33.795,21.944 32.978,21.914 31.98,21.944 C29.951,22.702 27.606,21.749 24.943,19.085 C23.34,17.481 22.658,16.377 22.901,15.771 C28.015,20.22 32.176,20.84 35.384,17.632 C35.415,17.601 35.46,17.528 35.52,17.406 C35.611,17.315 35.687,17.238 35.747,17.18 C35.807,17.119 36.072,17.036 36.541,16.93 C37.01,16.823 37.291,16.756 37.382,16.725 C37.927,16.541 38.502,16.15 39.106,15.544 C40.589,14.06 41,11.595 40.333,8.144" id="Path" fill="#6EB7E5" fill-rule="nonzero"></path>
                <path d="M36.747,3.104 C37.535,3.892 38.018,4.709 38.2,5.555 C35.9,5.435 33.282,4.814 30.346,3.693 C29.558,3.39 28.424,3.589 26.941,4.283 C25.73,4.887 24.808,5.509 24.171,6.144 C23.413,6.902 22.765,7.884 22.218,9.095 C21.553,10.549 21.265,11.864 21.356,13.045 C20.297,11.564 19.796,10.124 19.858,8.733 C19.858,8.491 20.296,7.507 21.174,5.781 C21.326,5.33 21.477,4.873 21.629,4.418 C21.901,3.724 22.34,3.073 22.946,2.466 C22.975,2.438 23.596,1.996 24.808,1.148 C25.563,0.577 26.412,0.334 27.35,0.422 C27.983,0.696 28.909,1.044 30.118,1.466 C30.422,1.529 31.707,1.602 33.978,1.694 C34.976,1.788 35.899,2.257 36.747,3.104" id="Path" fill="#6EB7E5" fill-rule="nonzero"></path>
                <path d="M44.646,6.555 C45.465,7.371 46.054,8.567 46.417,10.141 C46.78,11.715 46.765,13.185 46.372,14.543 C47.25,15.725 47.598,16.949 47.416,18.222 C47.233,19.494 46.704,20.568 45.826,21.444 C45.766,21.505 45.554,21.671 45.192,21.943 C44.827,22.217 44.617,22.382 44.554,22.443 C44.493,22.504 44.329,22.715 44.056,23.078 C43.784,23.442 43.618,23.654 43.557,23.715 C41.105,26.167 37.609,26.361 33.07,24.305 C35.704,24.395 38.29,23.17 40.833,20.628 C42.163,19.295 42.951,17.904 43.194,16.449 C43.406,15.997 43.678,15.301 44.01,14.362 C44.344,12.697 44.085,11.108 43.239,9.595 C42.754,8.686 41.832,7.522 40.47,6.099 C42.195,5.345 43.587,5.495 44.646,6.555" id="Path" fill="#6EB7E5" fill-rule="nonzero"></path>
                <path d="M27.986,5.692 C27.832,6.752 27.274,7.764 26.306,8.733 C26.245,8.796 26.14,8.871 25.986,8.961 C25.835,9.053 25.73,9.128 25.671,9.188 C24.491,10.369 24.581,11.641 25.942,13.003 C26.036,13.092 26.367,13.258 26.942,13.501 C27.517,13.744 27.835,13.894 27.897,13.954 L30.166,16.224 C30.348,16.406 30.968,16.543 32.027,16.634 C32.904,16.663 33.465,16.651 33.707,16.588 C33.133,17.163 32.921,17.376 33.071,17.223 C32.376,17.92 31.628,18.322 30.825,18.427 C30.022,18.534 29.167,18.252 28.259,17.588 C27.775,17.163 27.019,16.499 25.989,15.59 C25.718,15.378 25.242,15.098 24.56,14.749 C23.88,14.403 23.524,14.212 23.493,14.182 C23.102,13.789 22.834,13.131 22.7,12.207 C22.563,11.285 22.707,10.581 23.129,10.097 C23.221,9.945 23.358,9.778 23.538,9.597 C23.6,9.536 23.712,9.424 23.881,9.257 C24.045,9.09 24.174,8.962 24.265,8.87 C24.659,8.479 24.961,8.145 25.175,7.873 C25.265,7.721 25.401,7.554 25.582,7.373 C25.642,7.312 25.999,7.063 26.649,6.623 C27.297,6.185 27.743,5.874 27.986,5.692" id="Path" fill="#6EB7E5" fill-rule="nonzero"></path>
                <path d="M35.476,12.547 C35.113,13.515 34.81,14.121 34.568,14.363 C33.84,15.089 32.919,15.256 31.799,14.863 C31.496,14.56 30.966,14.151 30.21,13.637 C29.332,13.182 28.864,12.925 28.803,12.864 C28.531,12.593 28.319,12.063 28.168,11.276 C28.016,10.49 28.016,9.809 28.168,9.233 C28.47,9.295 29.029,9.733 29.846,10.549 C29.998,10.7 30.164,10.867 30.346,11.048 C30.437,11.138 30.618,11.398 30.891,11.82 C31.162,12.244 31.405,12.563 31.617,12.774 C31.828,12.986 32.041,13.138 32.252,13.226 C32.616,13.35 33.169,13.342 33.91,13.205 C34.651,13.07 35.172,12.85 35.476,12.547" id="Path" fill="#6EB7E5" fill-rule="nonzero"></path>
                <path d="M33.705,8.687 C34.464,9.445 34.507,10.157 33.84,10.822 C33.236,11.43 32.706,11.504 32.252,11.049 L29.484,8.279 L29.756,8.009 C30.333,8.039 30.906,8.342 31.482,8.915 C31.573,9.006 31.709,9.142 31.89,9.323 C32.071,9.506 32.209,9.641 32.3,9.732 C32.39,9.823 32.496,9.931 32.616,10.051 C32.646,10.019 32.693,9.976 32.754,9.914 C32.876,9.854 32.966,9.792 33.026,9.732 C33.208,9.55 33.222,9.081 33.071,8.325 C33.099,8.356 33.2,8.41 33.365,8.486 C33.532,8.56 33.643,8.627 33.705,8.687" id="Path" fill="#6EB7E5" fill-rule="nonzero"></path>
                <path d="M38.73,8.007 C38.91,8.189 38.955,8.551 38.865,9.096 C38.775,9.64 38.738,9.952 38.753,10.026 C38.767,10.103 38.91,10.518 39.181,11.275 C39.272,11.608 38.972,12.124 38.275,12.818 C38.366,12.727 38.306,12.788 38.096,12.998 C37.643,13.456 37.204,13.833 36.781,14.133 C37.234,11.987 36.689,10.14 35.15,8.596 C34.243,7.688 32.975,6.992 31.344,6.509 C31.949,6.206 33.321,6.373 35.468,7.009 C35.799,6.978 36.236,6.964 36.781,6.964 C37.506,7.083 38.156,7.433 38.73,8.007" id="Path" fill="#6EB7E5" fill-rule="nonzero"></path>
                <path d="M51.273,54.22 C49.941,54.038 48.473,53.783 46.87,53.447 C45.538,53.147 42.828,52.435 38.743,51.314 C39.259,51.166 40.014,50.983 41.013,50.77 C37.231,48.924 34.403,47.064 32.524,45.186 C28.53,41.192 26.259,36.833 25.716,32.112 C26.412,32.325 26.835,32.506 26.986,32.656 C27.047,32.719 27.085,33.029 27.1,33.588 C27.117,34.15 27.153,34.547 27.213,34.792 C27.484,35.73 27.894,36.714 28.439,37.744 C28.649,37.532 28.924,37.047 29.256,36.29 C29.225,38.741 30.785,41.54 33.932,44.688 C37.171,47.927 40.377,49.682 43.554,49.955 L43.601,47.73 C43.934,48.367 44.388,48.973 44.963,49.546 C45.719,50.301 46.537,50.905 47.413,51.361 C48.021,51.664 48.959,51.815 50.229,51.815 L51.273,54.22 Z M25.306,38.604 C25.822,39.117 26.321,40.073 26.806,41.464 C27.29,42.856 27.394,43.901 27.122,44.595 C26.667,44.444 26.018,44.189 25.17,43.823 L22.81,40.192 C22.538,40.464 22.629,41.373 23.084,42.916 L19.677,41.51 C19.253,40.663 18.528,39.39 17.498,37.696 L16.863,37.152 C17.046,37.878 17.302,38.981 17.634,40.464 C15.456,39.618 14.397,39.224 14.456,39.285 C14.244,39.074 13.988,38.604 13.685,37.878 L12.006,36.289 C12.308,37.197 12.504,37.999 12.596,38.694 C11.174,38.302 10.431,38.076 10.37,38.014 C10.25,37.894 10.008,37.561 9.644,37.017 C9.279,36.471 8.978,36.076 8.734,35.836 C8.646,35.743 8.554,35.652 8.463,35.563 C8.554,36.017 8.689,36.728 8.873,37.696 C8.631,37.696 7.889,37.498 6.648,37.106 C5.74,36.803 5.088,36.848 4.697,37.241 L4.832,37.378 C5.135,37.681 6.18,38.09 7.965,38.604 C7.842,38.724 7.608,38.93 7.258,39.218 C6.912,39.504 6.631,39.755 6.421,39.965 C7.057,39.694 7.964,39.391 9.144,39.058 C9.75,39.239 10.657,39.452 11.867,39.694 L10.188,41.374 C10.702,41.404 11.322,41.267 12.049,40.964 C12.775,40.664 13.306,40.497 13.636,40.464 C13.971,40.435 14.425,40.557 15,40.829 C15.573,41.101 16.103,41.359 16.587,41.599 L14.409,43.961 C14.682,43.871 15.922,43.357 18.131,42.418 C19.011,42.689 20.053,43.128 21.263,43.735 C20.448,44.492 20.053,44.854 20.085,44.824 C19.692,45.216 19.192,45.747 18.585,46.412 C19.253,46.049 19.903,45.702 20.538,45.367 C21.447,44.884 22.279,44.625 23.035,44.595 C23.551,44.566 24.141,44.747 24.805,45.141 C25.471,45.534 26.092,45.897 26.666,46.23 C26.153,46.986 25.715,47.547 25.35,47.911 C24.321,48.94 23.035,49.804 21.493,50.497 C19.555,51.347 17.725,51.633 15.998,51.358 C16.029,51.27 16.256,50.71 16.679,49.68 C12.957,49.166 10.264,48.5 8.6,47.683 L8.646,47.637 C8.768,47.577 8.856,47.517 8.917,47.456 L9.734,46.641 C9.734,46.457 9.69,46.322 9.598,46.231 C9.539,46.171 9.173,46.066 8.51,45.913 C7.843,45.763 7.374,45.612 7.102,45.458 C5.831,44.856 5.075,44.43 4.832,44.187 L3.742,43.099 C4.196,43.189 4.529,43.129 4.741,42.917 C4.984,42.675 5,42.448 4.788,42.235 C4.755,42.205 4.705,42.153 4.628,42.077 C4.554,42.004 4.5,41.948 4.47,41.918 C4.409,41.858 4.121,41.677 3.606,41.374 C3.092,41.072 2.789,40.874 2.698,40.783 L1.654,39.74 C2.23,39.649 2.775,39.558 3.289,39.467 C3.138,39.196 2.912,38.908 2.607,38.605 C2.547,38.544 2.443,38.439 2.291,38.286 C2.138,38.136 2.034,38.03 1.973,37.969 C1.369,37.364 0.974,36.698 0.793,35.972 C1.096,35.849 1.829,35.799 2.994,35.813 C4.161,35.828 4.771,35.807 4.834,35.744 C4.895,35.684 4.918,35.42 4.902,34.95 C4.888,34.482 4.895,34.232 4.924,34.202 C5.228,33.9 6.047,33.686 7.376,33.564 C8.709,33.444 9.495,33.415 9.737,33.475 C9.767,33.142 9.646,32.841 9.373,32.567 C11.221,32.418 13.687,32.916 16.773,34.067 C16.864,33.794 16.955,33.338 17.047,32.703 C17.864,33.158 18.905,34.021 20.177,35.291 C20.876,35.989 21.427,36.571 21.835,37.04 C22.243,37.509 22.402,37.699 22.311,37.607 L22.446,37.563 C22.568,37.443 22.794,37.063 23.127,36.426 L25.306,38.604 Z" id="Shape" fill="#6EB7E5" fill-rule="nonzero"></path>
                <g id="Group" transform="translate(176.518600, 4.887200)" fill-rule="nonzero">
                    <g id="Established1963">
                        <use fill="#000000" xlink:href="#path-1"></use>
                        <use fill="#78787B" xlink:href="#path-1"></use>
                    </g>
                    <g id="Reg.No.20008529">
                        <use fill="#000000" xlink:href="#path-2"></use>
                        <use fill="#78787B" xlink:href="#path-2"></use>
                    </g>
                    <g id="CHY5547">
                        <use fill="#000000" xlink:href="#path-3"></use>
                        <use fill="#78787B" xlink:href="#path-3"></use>
                    </g>
                </g>
                <path d="M169.61,0.407 L169.61,45.314" id="Path" stroke="#C6C5C5" stroke-width="0.6233" stroke-linecap="round"></path>
                <g id="www.autism.ie" fill-rule="nonzero">
                    <use fill="#000000" xlink:href="#path-4"></use>
                    <use fill="#E77825" xlink:href="#path-4"></use>
                </g>
            </g>
        </g>
    </g>
</svg>